<?xml version="1.0" encoding="UTF-8"?>
<!-- Generator: visioncortex VTracer 0.6.2 -->
<svg version="1.1" xmlns="http://www.w3.org/2000/svg" width="1280" height="1280">
<path d="M0 0 C2.12661554 1.21000986 2.12661554 1.21000986 5.26953125 2.43359375 C22.04896097 9.53249787 36.15852933 24.89462986 43.421875 41.43359375 C44.09543997 43.30352681 44.73481913 45.18658579 45.3203125 47.0859375 C45.7678948 49.0431924 45.7678948 49.0431924 46.94140625 50.0625 C47.08578125 51.09375 47.23015625 52.125 47.37890625 53.1875 C47.83052072 57.00701191 47.83052072 57.00701191 48.96118152 60.35065895 C49.97340055 64.18365358 50.18991951 67.37055451 50.18750191 71.32695675 C50.1898096 72.02726687 50.19211728 72.72757699 50.1944949 73.44910863 C50.19977716 75.78932513 50.19082573 78.1292649 50.18191528 80.46946716 C50.18278771 82.16667735 50.18453939 83.86388728 50.18709362 85.56109577 C50.19156377 90.21996015 50.18356799 94.87873249 50.17353749 99.53758514 C50.16490054 104.56341222 50.16782333 109.58923411 50.16934204 114.61506653 C50.17039074 123.32103645 50.16411574 132.02697639 50.15286636 140.73293877 C50.13661225 153.32029534 50.13140345 165.90763742 50.12889038 178.49500335 C50.12451314 198.91716865 50.11120324 219.33931798 50.09228516 239.76147461 C50.07392711 259.59968994 50.05977023 279.43790093 50.05126953 299.27612305 C50.05048136 301.11036673 50.05048136 301.11036673 50.04967727 302.98166584 C50.04706719 309.11624059 50.04453978 315.25081537 50.04205346 321.38539016 C50.02132006 372.27777115 49.98609373 423.1701348 49.94140625 474.0625 C51.23475346 474.06079126 51.23475346 474.06079126 52.5542289 474.059048 C103.67654988 473.99188873 154.79886618 473.94042765 205.92122246 473.90930401 C212.06190228 473.90555197 218.20258202 473.90166899 224.34326172 473.89770508 C225.56574143 473.89691815 226.78822114 473.89613122 228.04774569 473.89532044 C247.83233916 473.88227264 267.61690644 473.85862223 287.40148439 473.83104161 C307.70787319 473.80297002 328.01424829 473.78632002 348.3206557 473.78023452 C360.84703824 473.77612172 373.37334673 473.76313972 385.89970647 473.7387506 C394.49381296 473.72287178 403.08788127 473.71810451 411.68200137 473.72199587 C416.63758859 473.72391406 421.59304655 473.72100906 426.54861069 473.70488358 C431.0928167 473.69020521 435.63680744 473.68959878 440.1810237 473.69980332 C441.81787466 473.70106315 443.45473946 473.69732516 445.09156348 473.68785045 C456.97207187 473.62312499 469.42974651 473.88708232 480 480 C482.12661554 481.21000986 482.12661554 481.21000986 485.26953125 482.43359375 C502.04896097 489.53249787 516.15852933 504.89462986 523.421875 521.43359375 C524.09543997 523.30352681 524.73481913 525.18658579 525.3203125 527.0859375 C525.7678948 529.0431924 525.7678948 529.0431924 526.94140625 530.0625 C527.08578125 531.09375 527.23015625 532.125 527.37890625 533.1875 C527.81485272 536.97791719 527.81485272 536.97791719 528.95703125 540.14453125 C530.35255352 544.92446473 530.28287927 549.67828352 530.25390625 554.625 C530.24762207 556.08220459 530.24762207 556.08220459 530.24121094 557.56884766 C530.08600977 567.51988412 529.08465883 577.33562574 524.00390625 586.12109375 C522.79389639 588.24770929 522.79389639 588.24770929 521.5703125 591.390625 C514.47140838 608.17005472 499.10927639 622.27962308 482.5703125 629.54296875 C480.70037944 630.21653372 478.81732046 630.85591288 476.91796875 631.44140625 C474.96071385 631.88898855 474.96071385 631.88898855 473.94140625 633.0625 C472.91015625 633.206875 471.87890625 633.35125 470.81640625 633.5 C466.99689434 633.95161447 466.99689434 633.95161447 463.6532473 635.08227527 C459.82025267 636.0944943 456.63335174 636.31101326 452.6769495 636.30859566 C451.62648432 636.31205719 451.62648432 636.31205719 450.55479762 636.31558865 C448.21458112 636.32087091 445.87464135 636.31191948 443.53443909 636.30300903 C441.8372289 636.30388146 440.14001897 636.30563314 438.44281048 636.30818737 C433.7839461 636.31265752 429.12517376 636.30466174 424.46632111 636.29463124 C419.44049403 636.28599429 414.41467214 636.28891708 409.38883972 636.29043579 C400.6828698 636.29148449 391.97692986 636.28520949 383.27096748 636.27396011 C370.68361091 636.257706 358.09626883 636.2524972 345.5089029 636.24998413 C325.0867376 636.24560689 304.66458827 636.23229699 284.24243164 636.21337891 C264.40421631 636.19502086 244.56600532 636.18086398 224.7277832 636.17236328 C223.50495408 636.17183783 222.28212496 636.17131239 221.02224041 636.17077102 C214.88766566 636.16816094 208.75309088 636.16563353 202.61851609 636.16314721 C151.7261351 636.14241381 100.83377145 636.10718748 49.94140625 636.0625 C49.94254541 636.92473148 49.94368457 637.78696295 49.94485825 638.67532265 C50.01201752 689.79764363 50.0634786 740.91995993 50.09460224 792.04231621 C50.09835428 798.18299603 50.10223726 804.32367577 50.10620117 810.46435547 C50.1069881 811.68683518 50.10777503 812.90931489 50.10858581 814.16883944 C50.12163361 833.95343291 50.14528402 853.73800019 50.17286464 873.52257814 C50.20093623 893.82896694 50.21758623 914.13534204 50.22367173 934.44174945 C50.22778453 946.96813199 50.24076653 959.49444048 50.26515565 972.02080022 C50.28103447 980.61490671 50.28580174 989.20897502 50.28191038 997.80309512 C50.27999219 1002.75868234 50.28289719 1007.7141403 50.29902267 1012.66970444 C50.31370104 1017.21391045 50.31430747 1021.75790119 50.30410293 1026.30211745 C50.3028431 1027.93896841 50.30658109 1029.57583321 50.3160558 1031.21265723 C50.38078126 1043.09316562 50.11682393 1055.55084026 44.00390625 1066.12109375 C42.79389639 1068.24770929 42.79389639 1068.24770929 41.5703125 1071.390625 C34.47140838 1088.17005472 19.10927639 1102.27962308 2.5703125 1109.54296875 C0.70037944 1110.21653372 -1.18267954 1110.85591288 -3.08203125 1111.44140625 C-5.03928615 1111.88898855 -5.03928615 1111.88898855 -6.05859375 1113.0625 C-7.08984375 1113.206875 -8.12109375 1113.35125 -9.18359375 1113.5 C-12.97401094 1113.93594647 -12.97401094 1113.93594647 -16.140625 1115.078125 C-20.92055848 1116.47364727 -25.67437727 1116.40397302 -30.62109375 1116.375 C-31.59256348 1116.37081055 -32.5640332 1116.36662109 -33.56494141 1116.36230469 C-43.51597787 1116.20710352 -53.33171949 1115.20575258 -62.1171875 1110.125 C-64.24380304 1108.91499014 -64.24380304 1108.91499014 -67.38671875 1107.69140625 C-84.15745569 1100.5961798 -97.98749956 1085.36509142 -105.46875 1068.97265625 C-106.43409184 1066.35558882 -107.27148969 1063.73781645 -108.05859375 1061.0625 C-108.61823916 1059.45733522 -109.1806024 1057.85311462 -109.74609375 1056.25 C-111.72950682 1050.52137119 -112.18348646 1044.96123595 -112.18164158 1038.92109108 C-112.18279542 1038.2219348 -112.18394927 1037.52277853 -112.18513808 1036.8024357 C-112.18778447 1034.46019548 -112.18329889 1032.11802404 -112.17884827 1029.77578735 C-112.17928437 1028.07944071 -112.18016001 1026.38309413 -112.18143743 1024.68674791 C-112.18367465 1020.02565014 -112.17967164 1015.36457533 -112.17465937 1010.70348048 C-112.170344 1005.67695412 -112.17180207 1000.65042906 -112.17256165 995.62390137 C-112.17308619 986.91519488 -112.16994663 978.20649589 -112.16432381 969.49779129 C-112.15619942 956.90644 -112.15359262 944.31509234 -112.15233582 931.72373872 C-112.15014678 911.29547871 -112.14349069 890.86722269 -112.1340332 870.43896484 C-112.12485526 850.59391296 -112.11777629 830.74886217 -112.11352539 810.90380859 C-112.11313131 809.06917082 -112.11313131 809.06917082 -112.11272926 807.19746967 C-112.11142423 801.06162427 -112.11016052 794.92577886 -112.10891736 788.78993344 C-112.09854935 737.8807862 -112.08093505 686.9716433 -112.05859375 636.0625 C-112.92082523 636.06363916 -113.7830567 636.06477832 -114.6714164 636.065952 C-165.79373738 636.13311127 -216.91605368 636.18457235 -268.03840996 636.21569599 C-274.17908978 636.21944803 -280.31976952 636.22333101 -286.46044922 636.22729492 C-287.68292893 636.22808185 -288.90540864 636.22886878 -290.16493319 636.22967956 C-309.94952666 636.24272736 -329.73409394 636.26637777 -349.51867189 636.29395839 C-369.82506069 636.32202998 -390.13143579 636.33867998 -410.4378432 636.34476548 C-422.96422574 636.34887828 -435.49053423 636.36186028 -448.01689397 636.3862494 C-456.61100046 636.40212822 -465.20506877 636.40689549 -473.79918887 636.40300413 C-478.75477609 636.40108594 -483.71023405 636.40399094 -488.66579819 636.42011642 C-493.2100042 636.43479479 -497.75399494 636.43540122 -502.2982112 636.42519668 C-503.93506216 636.42393685 -505.57192696 636.42767484 -507.20875098 636.43714955 C-519.08925937 636.50187501 -531.54693401 636.23791768 -542.1171875 630.125 C-544.24380304 628.91499014 -544.24380304 628.91499014 -547.38671875 627.69140625 C-564.15745569 620.5961798 -577.98749956 605.36509142 -585.46875 588.97265625 C-586.43409184 586.35558882 -587.27148969 583.73781645 -588.05859375 581.0625 C-588.61823916 579.45733522 -589.1806024 577.85311462 -589.74609375 576.25 C-594.71821238 561.88918808 -593.86560307 541.67943918 -588.07421875 527.68359375 C-587.45982705 526.43826903 -586.81627992 525.20599901 -586.12109375 524.00390625 C-584.91108389 521.87729071 -584.91108389 521.87729071 -583.6875 518.734375 C-576.59227355 501.96363806 -561.36118517 488.13359419 -544.96875 480.65234375 C-542.35168257 479.68700191 -539.7339102 478.84960406 -537.05859375 478.0625 C-535.45342897 477.50285459 -533.84920837 476.94049135 -532.24609375 476.375 C-526.51746494 474.39158693 -520.9573297 473.93760729 -514.91718483 473.93945217 C-514.21802855 473.93829833 -513.51887228 473.93714448 -512.79852945 473.93595567 C-510.45628923 473.93330928 -508.11411779 473.93779486 -505.7718811 473.94224548 C-504.07553446 473.94180938 -502.37918788 473.94093374 -500.68284166 473.93965632 C-496.02174389 473.9374191 -491.36066908 473.94142211 -486.69957423 473.94643438 C-481.67304787 473.95074975 -476.64652281 473.94929168 -471.61999512 473.9485321 C-462.91128863 473.94800756 -454.20258964 473.95114712 -445.49388504 473.95676994 C-432.90253375 473.96489433 -420.31118609 473.96750113 -407.71983247 473.96875793 C-387.29157246 473.97094697 -366.86331644 473.97760306 -346.43505859 473.98706055 C-326.59000671 473.99623849 -306.74495592 474.00331746 -286.89990234 474.00756836 C-285.06526457 474.00796244 -285.06526457 474.00796244 -283.19356342 474.00836449 C-277.05771802 474.00966952 -270.92187261 474.01093323 -264.78602719 474.01217639 C-213.87687995 474.0225444 -162.96773705 474.0401587 -112.05859375 474.0625 C-112.06030249 472.76915279 -112.06030249 472.76915279 -112.06204575 471.44967735 C-112.12920502 420.32735637 -112.1806661 369.20504007 -112.21178974 318.08268379 C-112.21554178 311.94200397 -112.21942476 305.80132423 -112.22338867 299.66064453 C-112.2241756 298.43816482 -112.22496253 297.21568511 -112.22577331 295.95616056 C-112.23882111 276.17156709 -112.26247152 256.38699981 -112.29005214 236.60242186 C-112.31812373 216.29603306 -112.33477373 195.98965796 -112.34085923 175.68325055 C-112.34497203 163.15686801 -112.35795403 150.63055952 -112.38234315 138.10419978 C-112.39822197 129.51009329 -112.40298924 120.91602498 -112.39909788 112.32190488 C-112.39717969 107.36631766 -112.40008469 102.4108597 -112.41621017 97.45529556 C-112.43088854 92.91108955 -112.43149497 88.36709881 -112.42129043 83.82288255 C-112.4200306 82.18603159 -112.42376859 80.54916679 -112.4332433 78.91234277 C-112.49796876 67.03183438 -112.23401143 54.57415974 -106.12109375 44.00390625 C-104.91108389 41.87729071 -104.91108389 41.87729071 -103.6875 38.734375 C-96.59227355 21.96363806 -81.36118517 8.13359419 -64.96875 0.65234375 C-62.35168257 -0.31299809 -59.7339102 -1.15039594 -57.05859375 -1.9375 C-55.45342897 -2.49714541 -53.84920837 -3.05950865 -52.24609375 -3.625 C-37.03108153 -8.8928669 -14.0681431 -8.1357936 0 0 Z " fill="#000000" transform="translate(671.05859375,84.9375)"/>
</svg>
