<svg width="34" height="34" viewBox="0 0 34 34" fill="none" xmlns="http://www.w3.org/2000/svg">
<rect y="2" width="32" height="32" rx="8" fill="black" fill-opacity="0.05"/>
<path fill-rule="evenodd" clip-rule="evenodd" d="M22.418 15.1167C22.418 16.2471 22.7109 16.9132 23.3554 17.681C23.8439 18.2467 24 18.9727 24 19.7604C24 20.5472 23.7466 21.2941 23.2388 21.9005C22.5741 22.6275 21.6366 23.0916 20.6799 23.1723C19.2934 23.2928 17.9062 23.3943 16.5004 23.3943C15.0938 23.3943 13.7074 23.3337 12.321 23.1723C11.3633 23.0916 10.4259 22.6275 9.76206 21.9005C9.25431 21.2941 9 20.5472 9 19.7604C9 18.9727 9.15697 18.2467 9.64455 17.681C10.3093 16.9132 10.5829 16.2471 10.5829 15.1167V14.7333C10.5829 13.2195 10.9529 12.2297 11.715 11.2607C12.848 9.84753 14.6641 9 16.461 9H16.5399C18.3754 9 20.2502 9.88832 21.364 11.3622C22.0865 12.3112 22.418 13.2594 22.418 14.7333V15.1167ZM13.9179 25.2547C13.9179 24.8016 14.3257 24.5939 14.7028 24.5051C15.1439 24.41 17.8317 24.41 18.2728 24.5051C18.6499 24.5939 19.0577 24.8016 19.0577 25.2547C19.0357 25.6862 18.7876 26.0688 18.4447 26.3117C18.0001 26.6652 17.4784 26.889 16.9329 26.9698C16.6312 27.0096 16.3348 27.0105 16.0436 26.9698C15.4973 26.889 14.9756 26.6652 14.5318 26.3108C14.188 26.0688 13.9399 25.6862 13.9179 25.2547Z" fill="black"/>
<circle cx="29" cy="5" r="4.5" fill="#981B1F" stroke="white"/>
</svg>
