<svg width="21" height="21" viewBox="0 0 21 21" fill="none" xmlns="http://www.w3.org/2000/svg">
<path fill-rule="evenodd" clip-rule="evenodd" d="M5.67244 17.9371C6.09444 17.9371 6.43744 18.2877 6.43744 18.7191C6.43744 19.1504 6.09444 19.5 5.67244 19.5C5.25045 19.5 4.90845 19.1504 4.90845 18.7191C4.90845 18.2877 5.25045 17.9371 5.67244 17.9371Z" fill="black" stroke="black" stroke-width="1.5" stroke-linecap="round" stroke-linejoin="round"/>
<path fill-rule="evenodd" clip-rule="evenodd" d="M16.9249 17.9371C17.3469 17.9371 17.6899 18.2877 17.6899 18.7191C17.6899 19.1504 17.3469 19.5 16.9249 19.5C16.5029 19.5 16.1599 19.1504 16.1599 18.7191C16.1599 18.2877 16.5029 17.9371 16.9249 17.9371Z" fill="black" stroke="black" stroke-width="1.5" stroke-linecap="round" stroke-linejoin="round"/>
<path d="M1 1L3.07999 1.36797L4.04299 13.095C4.12099 14.0507 4.90198 14.7846 5.83998 14.7846H16.7519C17.6479 14.7846 18.4079 14.112 18.5369 13.2043L19.4859 6.50115C19.6029 5.67424 18.9759 4.93421 18.1589 4.93421H3.41399" stroke="black" stroke-width="1.5" stroke-linecap="round" stroke-linejoin="round"/>
<path d="M12.3754 8.71203H15.1484" stroke="black" stroke-width="1.5" stroke-linecap="round" stroke-linejoin="round"/>
</svg>
