<svg width="16" height="9" viewBox="0 0 16 9" fill="none" xmlns="http://www.w3.org/2000/svg">
<path d="M13.1501 0.668641L13.1501 0.668617L13.1483 0.670474L8.91676 5.06213L8.9163 5.0626L8.00944 6.01627L2.87139 0.670565C2.7595 0.554144 2.63314 0.457537 2.4917 0.39622C2.35494 0.336932 2.20457 0.300356 2.05193 0.300356C1.89596 0.300356 1.74279 0.32334 1.59844 0.397605C1.46536 0.455663 1.32783 0.538485 1.22194 0.648661L1.22184 0.648565L1.2184 0.652534C1.11962 0.766732 1.02788 0.896721 0.969622 1.04219C0.910915 1.18878 0.88877 1.35556 0.88877 1.50648C0.88877 1.66367 0.923627 1.81799 0.979184 1.96828L0.97915 1.96829L0.980148 1.97078C1.0384 2.11624 1.13053 2.2473 1.23246 2.35335L7.19036 8.55205C7.29534 8.66128 7.42255 8.74511 7.55952 8.80449L7.55951 8.80453L7.56214 8.80558C7.70726 8.86365 7.85692 8.90035 8.00982 8.90035C8.16247 8.90035 8.31283 8.86378 8.4496 8.80449C8.58657 8.74511 8.71378 8.66128 8.81876 8.55205L14.7767 2.35336L14.7767 2.35338L14.7785 2.35139C14.9866 2.12283 15.0888 1.82415 15.0888 1.51744C15.0888 1.20608 14.9624 0.907658 14.7556 0.692467C14.5381 0.466195 14.2606 0.344698 13.9592 0.344165C13.6563 0.332631 13.3677 0.454218 13.1501 0.668641Z" fill="black" stroke="black" stroke-width="0.2"/>
</svg>
