<svg width="30" height="16" viewBox="0 0 30 16" fill="none" xmlns="http://www.w3.org/2000/svg">
<path d="M0.434659 0.454728H3.65909L7.97727 10.9945H8.14773L12.4659 0.454728H15.6903V15.0002H13.1619V5.00728H13.027L9.0071 14.9576H7.1179L3.09801 4.98598H2.96307V15.0002H0.434659V0.454728ZM26.4645 4.45331C26.3982 3.83304 26.1188 3.35009 25.6264 3.00444C25.1387 2.6588 24.5043 2.48598 23.723 2.48598C23.1738 2.48598 22.7027 2.56884 22.3097 2.73456C21.9167 2.90028 21.616 3.12518 21.4077 3.40927C21.1993 3.69336 21.0928 4.0177 21.0881 4.38229C21.0881 4.68532 21.1567 4.9481 21.294 5.17064C21.4361 5.39318 21.6278 5.58257 21.8693 5.73882C22.1108 5.89033 22.3783 6.01818 22.6719 6.12234C22.9654 6.22651 23.2614 6.3141 23.5597 6.38513L24.9233 6.72603C25.4725 6.85388 26.0005 7.0267 26.5071 7.2445C27.0185 7.4623 27.4754 7.73693 27.8778 8.06836C28.285 8.3998 28.607 8.7999 28.8438 9.26865C29.0805 9.7374 29.1989 10.2866 29.1989 10.9164C29.1989 11.7686 28.9811 12.5191 28.5455 13.1678C28.1098 13.8117 27.4801 14.316 26.6562 14.6806C25.8371 15.0404 24.8452 15.2204 23.6804 15.2204C22.5488 15.2204 21.5663 15.0452 20.733 14.6948C19.9044 14.3444 19.2557 13.833 18.7869 13.1607C18.3229 12.4883 18.072 11.6692 18.0341 10.7033H20.6264C20.6643 11.2099 20.8205 11.6313 21.0952 11.9675C21.3698 12.3037 21.7273 12.5546 22.1676 12.7204C22.6127 12.8861 23.1098 12.9689 23.6591 12.9689C24.232 12.9689 24.7339 12.8837 25.1648 12.7133C25.6004 12.5381 25.9413 12.2966 26.1875 11.9888C26.4337 11.6763 26.5592 11.3117 26.5639 10.8951C26.5592 10.5163 26.4479 10.2038 26.2301 9.95757C26.0123 9.70662 25.7069 9.49829 25.3139 9.33257C24.9257 9.16211 24.4711 9.0106 23.9503 8.87802L22.2955 8.45189C21.0975 8.14412 20.1506 7.67774 19.4545 7.05274C18.7633 6.423 18.4176 5.5873 18.4176 4.54564C18.4176 3.68863 18.6496 2.93816 19.1136 2.29422C19.5824 1.65028 20.2192 1.15075 21.0241 0.795637C21.8291 0.435789 22.7405 0.255864 23.7585 0.255864C24.7907 0.255864 25.6951 0.435789 26.4716 0.795637C27.2528 1.15075 27.866 1.64554 28.3111 2.28001C28.7562 2.90975 28.9858 3.63418 29 4.45331H26.4645Z" fill="black"/>
</svg>
