<svg width="92" height="91" viewBox="0 0 92 91" fill="none" xmlns="http://www.w3.org/2000/svg">
<path opacity="0.3" d="M56.8959 87.0872C57.9025 86.6027 58.9929 86.5395 60.0415 86.1182C65.8712 83.8222 69.4991 77.84 68.912 71.5839C68.4087 66.2125 68.0522 60.8201 67.6118 55.4277C67.1295 49.4033 66.6472 43.3789 66.1648 37.3335C65.8083 32.889 65.4309 28.4655 65.1163 24.0209C64.8647 20.3768 62.3901 17.9966 58.7413 17.9755C56.5604 17.9755 54.4004 17.9545 52.2195 17.9966C51.6952 17.9966 51.5484 17.8702 51.5065 17.3225C51.15 10.4556 47.8995 5.46338 41.7133 2.49333C33.367 -1.50887 22.7559 2.87249 19.5265 11.5931C18.8345 13.4678 18.4151 15.4057 18.3941 17.4068C18.3941 17.8913 18.2473 17.9966 17.7859 17.9966C15.584 17.9755 13.3821 17.9755 11.1802 17.9966C7.53138 18.0176 5.07784 20.3979 4.80522 24.042C4.30193 30.7615 3.73573 37.502 3.21147 44.2215C2.72914 50.2248 2.28876 56.2281 1.80644 62.2314C1.5548 65.4964 1.21927 68.7613 1.03054 72.0263C0.527246 79.9885 6.3151 86.2025 13.2144 86.9397C13.2773 86.9397 13.3192 87.045 13.3821 87.0872C27.8727 87.0872 42.3843 87.0872 56.8959 87.0872ZM34.9608 82.0528C28.3551 82.0528 21.7284 82.0739 15.1227 82.0528C9.6494 82.0318 5.66501 77.7557 6.04248 72.258C6.23121 69.33 6.50383 66.4021 6.7345 63.4531C7.27974 56.7547 7.804 50.0563 8.34923 43.3579C8.85252 36.9544 9.35582 30.5719 9.85911 24.1684C9.92202 23.368 10.3205 23.0309 11.0964 23.0309C13.3192 23.0309 15.5631 23.052 17.7859 23.0099C18.3521 23.0099 18.4151 23.1994 18.3941 23.6839C18.3731 25.4533 18.3731 27.2227 18.3941 28.971C18.3941 30.593 19.4426 31.7515 20.8896 31.7515C22.3575 31.7515 23.406 30.614 23.406 28.9921C23.406 27.2016 23.427 25.4112 23.406 23.6207C23.406 23.1363 23.5319 23.0099 24.0142 23.0099C31.3329 23.0309 38.6306 23.0309 45.9493 23.0099C46.4316 23.0099 46.5365 23.1573 46.5365 23.6207C46.5155 25.3901 46.5155 27.1595 46.5365 28.9078C46.5365 30.593 47.564 31.7515 49.0529 31.7304C50.5418 31.7094 51.5484 30.5719 51.5484 28.8657C51.5484 27.1384 51.5694 25.3901 51.5484 23.6629C51.5484 23.1784 51.6323 22.9888 52.1775 23.0099C54.3794 23.052 56.5813 23.0099 58.7832 23.0309C59.7479 23.0309 60.0415 23.3258 60.1044 24.3369C60.398 28.0442 60.6915 31.7726 60.9851 35.4799C61.4674 41.5674 61.9498 47.655 62.4321 53.7425C62.8515 59.0718 63.2919 64.401 63.7113 69.7303C63.8581 71.5418 64.1726 73.3533 63.7113 75.1648C62.6837 79.2513 59.1817 82.0107 54.9037 82.0318C48.2351 82.0739 41.5874 82.0528 34.9608 82.0528ZM35.0237 17.9966C31.7942 17.9966 28.5438 17.9966 25.3143 17.9966C23.3012 17.9966 23.3012 17.9966 23.5738 15.9534C24.3707 10.0343 29.6762 5.73722 35.7576 6.07425C41.5874 6.41127 46.4106 11.4667 46.5365 17.3436C46.5574 17.9545 46.3268 17.9966 45.8235 17.9966C42.2165 17.9755 38.6096 17.9966 35.0237 17.9966Z" fill="black" stroke="#F5F5F5"/>
<circle cx="68.3021" cy="68.1733" r="22.8267" fill="#F5F5F5"/>
<path opacity="0.3" d="M65.8659 87.0867C64.3987 86.7157 62.8979 86.4965 61.4813 85.9231C59.3902 85.0631 57.434 83.9669 55.7308 82.4492C53.3193 80.2906 51.498 77.7611 50.4187 74.7087C49.8453 73.0898 49.5249 71.4034 49.3563 69.6833C49.0696 66.9008 49.4406 64.2363 50.4018 61.6731C52.6616 55.7033 56.8438 51.7403 62.999 49.8853C64.8372 49.3288 66.7091 49.0421 68.5809 49.1096C73.2522 49.2782 77.4007 50.7791 80.9421 53.9495C84.1968 56.8669 86.1024 60.4926 87.0299 64.6917C87.1142 65.0289 86.895 65.4337 87.2154 65.7204C87.2154 67.3393 87.2154 68.9751 87.2154 70.594C86.8781 70.9144 87.0805 71.336 87.013 71.707C86.3722 74.557 85.2929 77.2046 83.5054 79.5318C80.9083 82.9214 77.603 85.2992 73.4377 86.4122C72.5439 86.6483 71.6333 86.8506 70.7226 87.0699C69.1037 87.0867 67.4848 87.0867 65.8659 87.0867ZM68.2268 52.7859C59.66 52.8196 53.2687 59.5651 52.9145 67.373C52.4929 76.7492 59.9636 83.3767 67.8389 83.5453C76.7767 83.7477 83.5054 76.6312 83.674 68.5197C83.8764 59.7674 76.7261 52.651 68.2268 52.7859Z" fill="black"/>
<path opacity="0.3" d="M60.4692 74.1521C60.3849 73.4945 60.8065 73.056 61.2112 72.6344C62.4928 71.3359 63.7407 70.0205 65.0898 68.7895C65.6632 68.2498 65.562 67.98 65.0561 67.5078C63.7407 66.2599 62.4591 64.9445 61.1775 63.646C60.5872 63.0558 60.2668 62.3644 60.5535 61.5212C61.0088 60.1552 62.6109 59.9023 63.7407 60.9984C65.1236 62.3475 66.4895 63.7135 67.8386 65.0963C68.2096 65.4842 68.3951 65.4505 68.7493 65.0795C70.0984 63.6966 71.4643 62.3307 72.8472 60.9816C73.9602 59.9023 75.1912 60.0878 75.9501 61.42C76.3211 62.0777 76.0681 62.9378 75.225 63.7809C73.9433 65.0795 72.6617 66.378 71.3632 67.6427C70.9584 68.0306 70.9753 68.233 71.3632 68.6208C72.7291 69.9362 74.0782 71.3022 75.4105 72.6513C76.5572 73.8317 76.2536 75.3157 74.7696 75.8554C73.8421 76.1927 73.2182 75.6193 72.6448 75.0628C71.3294 73.798 70.0478 72.5164 68.783 71.201C68.3951 70.7963 68.1928 70.8131 67.8049 71.201C66.5401 72.5164 65.2416 73.798 63.9431 75.0628C62.9987 75.9903 62.2399 76.1421 61.3292 75.6024C60.7221 75.2989 60.486 74.8773 60.4692 74.1521Z" fill="black"/>
</svg>
