<svg width="85" height="80" viewBox="0 0 85 80" fill="none" xmlns="http://www.w3.org/2000/svg">
<path fill-rule="evenodd" clip-rule="evenodd" d="M0.587937 17.1914C11.3122 6.11066 25.638 0 40.7949 0C56.0441 0 70.2777 6.11026 81.096 17.1926L81.1026 17.1994L81.1096 17.2058C81.8656 17.9089 81.887 19.1945 81.0949 20.013C80.7151 20.4054 80.2646 20.567 79.7007 20.567C79.1368 20.567 78.6863 20.4054 78.3065 20.013L78.3053 20.0117C68.2745 9.74437 54.9576 4.0258 40.7949 4.0258C26.6321 4.0258 13.3152 9.74437 3.28446 20.0117L3.27664 20.0197L3.26929 20.0281C2.61143 20.7834 1.38344 20.752 0.573225 19.9986C-0.18284 19.2955 -0.204207 18.0099 0.587937 17.1914ZM12.0363 28.9241C27.9847 12.4456 53.8843 12.4456 69.8326 28.9241L69.8398 28.9315L69.8474 28.9385C70.6034 29.6416 70.6248 30.9273 69.8326 31.7457C69.4528 32.1382 69.0023 32.2997 68.4385 32.2997C67.8746 32.2997 67.4241 32.1382 67.0443 31.7457C52.5578 16.7777 29.0322 16.7747 14.7295 31.7473L14.7177 31.7609C14.0437 32.5346 12.8219 32.5574 12.0363 31.7457L12.0291 31.7383L12.0216 31.7313C11.2655 31.0282 11.2442 29.7426 12.0363 28.9241ZM22.647 39.9837C32.4568 29.8478 48.3113 29.5653 58.3934 39.3196L58.556 39.4769L58.7734 39.4145C60.4163 38.943 62.2415 38.6603 64.0639 38.6603C75.1026 38.6603 84.2424 47.9023 84.2424 59.3302C84.2424 70.7627 75.2842 80 64.2501 80C56.4077 80 49.558 75.2887 46.2672 68.3939L46.0891 68.0207L45.7262 68.2191C44.2051 69.0512 42.595 69.4213 40.981 69.4213C38.295 69.4213 35.6041 68.3105 33.63 66.2707C29.5884 62.0948 29.5884 55.3153 33.63 51.1394L33.6336 51.1356C36.9467 47.6198 42.1403 47.0633 46.0824 49.4702L46.4344 49.6851L46.6306 49.3223C48.3649 46.1156 51.0145 43.3771 54.1219 41.4885L54.6051 41.1948L54.1599 40.846C45.5347 34.0886 33.2089 34.7733 25.4353 42.8053C25.0555 43.1977 24.605 43.3593 24.0411 43.3593C23.4773 43.3593 23.0268 43.1977 22.647 42.8053L22.6398 42.7979L22.6323 42.7909C21.8762 42.0878 21.8548 40.8021 22.647 39.9837ZM64.0639 42.7823C55.1797 42.7823 47.9427 50.2786 47.9427 59.4263C47.9427 68.5741 55.1797 76.0704 64.0639 76.0704C72.9481 76.0704 80.1851 68.5741 80.1851 59.4263C80.1851 50.2786 72.9481 42.7823 64.0639 42.7823ZM61.663 50.2902C61.663 49.1478 62.5236 48.2773 63.5985 48.2773C64.6735 48.2773 65.5341 49.1478 65.5341 50.2902V60.1957C65.5341 61.3381 64.6735 62.2086 63.5985 62.2086C62.5236 62.2086 61.663 61.3381 61.663 60.1957V50.2902ZM44.6606 53.5362C42.0881 51.5937 38.5148 51.7948 36.2321 54.1533C33.7556 56.7122 33.7629 60.8921 36.2268 63.5398L36.2321 63.5453C38.4127 65.7983 41.8849 66.1092 44.3706 64.3627L44.5753 64.2188L44.5307 63.9726C44.2538 62.4471 44.0716 60.9334 44.0716 59.5225C44.0716 57.6364 44.3455 55.7456 44.8041 53.9451L44.8683 53.6929L44.6606 53.5362ZM61.663 67.4084C61.663 66.266 62.5236 65.3955 63.5985 65.3955C64.6636 65.3955 65.5341 66.3519 65.5341 67.4084V67.6008C65.5341 68.7432 64.6735 69.6137 63.5985 69.6137C62.5236 69.6137 61.663 68.7432 61.663 67.6008V67.4084Z" fill="black" fill-opacity="0.3"/>
</svg>
