<svg width="68" height="80" viewBox="0 0 68 80" fill="none" xmlns="http://www.w3.org/2000/svg">
<g clip-path="url(#clip0_0_3126)">
<path d="M62.0147 52.9356L61.9628 52.9183L61.2884 52.7108L61.3057 52.019V36.6278C61.3057 29.7276 58.7116 23.1907 54.0078 18.2274C52.5378 16.6364 50.8258 15.2183 48.9581 14.0251L48.9235 14.0078C46.9866 12.7799 44.8941 11.8115 42.6632 11.1025L41.8504 10.8431L42.0233 10.013C42.1271 9.52875 42.179 9.00994 42.179 8.45655V8.40467C42.1617 3.7527 38.3917 0 33.7743 0C29.1569 0 25.3869 3.7527 25.3696 8.37008C25.3696 8.38738 25.3696 8.40467 25.3696 8.42196C25.3696 8.97536 25.4215 9.51146 25.5253 9.97838L25.6982 10.8085L24.8854 11.0679C22.6719 11.7769 20.562 12.7626 18.6252 13.9905C16.7229 15.1837 15.0281 16.6018 13.5581 18.1928C8.81971 23.1907 6.22568 29.7276 6.22568 36.6105V52.7108L5.51664 52.9356C2.21358 53.9213 0 56.9477 0 60.4756C0 61.0117 0.0518807 61.5478 0.155642 62.0666C0.795504 65.1794 3.2339 67.6178 6.34674 68.2577C6.86554 68.3614 7.40164 68.4133 7.93774 68.4133H23.1388V69.3645C23.1388 71.1457 23.5711 72.8923 24.4185 74.4315C24.5223 74.6217 24.6433 74.8292 24.799 75.0886C24.9546 75.3307 25.093 75.5383 25.2313 75.7285C25.2659 75.7631 25.3005 75.815 25.3178 75.8495L25.4388 76.0052C25.4734 76.0398 25.508 76.0917 25.5426 76.1262C25.7155 76.3338 25.9058 76.5413 26.1306 76.7661C26.1479 76.7834 26.1652 76.8007 26.1997 76.8353C26.217 76.8526 26.2343 76.8699 26.2343 76.8699C26.2516 76.8872 26.2689 76.9044 26.2862 76.9044L26.3554 76.9563C26.5802 77.1811 26.7877 77.3714 26.9952 77.5443C27.0125 77.5616 27.0298 77.5616 27.0471 77.5789L27.1163 77.6308C28.1539 78.4609 29.3299 79.1007 30.5923 79.4812C30.6269 79.4985 30.6615 79.4985 30.7134 79.5158L30.8171 79.5504C31.1111 79.6368 31.3705 79.706 31.6299 79.7579L31.6991 79.7752C33.0826 80.0519 34.4834 80.0519 35.8668 79.7752L35.936 79.7579C36.1954 79.706 36.4548 79.6368 36.7488 79.5504L36.8526 79.5158C36.8872 79.4985 36.939 79.4985 36.9736 79.4812C38.2361 79.0834 39.412 78.4609 40.4496 77.6308L40.5188 77.5789C40.5361 77.5616 40.5534 77.5616 40.5707 77.5443C40.7782 77.3714 40.9857 77.1811 41.2105 76.9563L41.2797 76.9044C41.297 76.8872 41.3143 76.8699 41.3316 76.8699C41.3489 76.8526 41.3662 76.8353 41.3662 76.8353C41.3835 76.818 41.4008 76.8007 41.4354 76.7661C41.6602 76.5413 41.8504 76.3338 42.0233 76.1262C42.0579 76.0917 42.0925 76.0398 42.1271 76.0052L42.2482 75.8495C42.2827 75.815 42.3173 75.7631 42.3519 75.7285C42.4903 75.5383 42.6286 75.3307 42.7843 75.0886C42.9399 74.8465 43.061 74.639 43.1647 74.4315C43.9948 72.8923 44.4444 71.1284 44.4444 69.3645V68.4133H59.6455C60.1816 68.4133 60.7177 68.3614 61.2365 68.2577C64.3493 67.6178 66.7877 65.1794 67.4276 62.0666C67.5313 61.5478 67.5832 61.0117 67.5832 60.4756C67.5313 56.9477 65.3178 53.9213 62.0147 52.9356ZM33.7743 3.44142C36.5067 3.44142 38.7376 5.67229 38.7376 8.40467C38.7376 8.5949 38.703 8.75054 38.6684 8.90618C38.6511 8.95806 38.6511 9.00994 38.6338 9.04453V10.1513L37.527 9.96109C37.112 9.89191 36.5586 9.80545 36.0052 9.80545H35.5556H31.5434C30.9901 9.80545 30.4367 9.89191 30.0216 9.96109L28.9148 10.1513V9.04453C28.9148 9.00994 28.8975 8.94077 28.8802 8.90618C28.8457 8.75054 28.8111 8.5949 28.8111 8.40467C28.8111 5.65499 31.0419 3.44142 33.7743 3.44142ZM9.6671 36.6105C9.6671 36.1262 9.68439 35.6074 9.71898 35.1059C10.0476 29.9697 12.0882 25.0065 15.4431 21.15C15.6334 20.9252 15.8063 20.735 15.9792 20.562L15.9965 20.5447C19.0402 17.3281 22.9313 15.0454 27.2892 13.9386L27.393 13.904C28.8284 13.5581 30.281 13.3333 31.7337 13.2469C32.1833 13.2296 32.6329 13.2123 33.0653 13.2123H34.4834C34.9157 13.2123 35.3653 13.2296 35.815 13.2469C37.2676 13.3333 38.7376 13.5409 40.1556 13.904L40.2594 13.9386C44.6001 15.0454 48.5084 17.3281 51.5521 20.5447L51.5694 20.562C51.725 20.735 51.898 20.9079 52.0882 21.15C55.4604 25.0065 57.4838 29.9524 57.8124 35.0886C57.8469 35.6074 57.8642 36.1089 57.8642 36.6105V52.5205H9.6671V36.6105ZM40.9511 69.3818C40.9511 73.4112 37.8037 76.5586 33.7743 76.5586C29.7449 76.5586 26.5975 73.4112 26.5975 69.3818V68.4306H40.9684V69.3818H40.9511ZM59.5763 64.9892H7.95504C5.46476 64.9892 3.44142 62.9658 3.44142 60.4756C3.44142 57.9853 5.46476 55.962 7.95504 55.962H59.5936C62.0839 55.962 64.1072 57.9853 64.1072 60.4756C64.0899 62.9658 62.0666 64.9892 59.5763 64.9892Z" fill="black" fill-opacity="0.3"/>
<path d="M35.9187 35.227L42.0579 29.0878C42.3519 28.7938 42.5075 28.4134 42.5075 28.0156C42.5075 27.6179 42.3519 27.2201 42.0579 26.9434C41.7639 26.6667 41.3834 26.4938 40.9857 26.4938C40.5706 26.4938 40.1902 26.6494 39.9135 26.9434L33.7743 33.0826L27.635 26.9434C27.3411 26.6494 26.9606 26.4938 26.5628 26.4938C26.1478 26.4938 25.7673 26.6494 25.4906 26.9434C25.2139 27.2374 25.041 27.6179 25.041 28.0156C25.041 28.4134 25.1967 28.8111 25.4906 29.0878L31.6299 35.227L25.4906 41.3662C25.1967 41.6602 25.041 42.0407 25.041 42.4384C25.041 42.8535 25.1967 43.2339 25.4906 43.5106C25.7846 43.7873 26.1651 43.9603 26.5628 43.9603C26.9779 43.9603 27.3584 43.8046 27.635 43.5106L33.7743 37.3714L39.9135 43.5106C40.2075 43.8046 40.5879 43.9603 40.9857 43.9603C41.4007 43.9603 41.7812 43.8046 42.0579 43.5106C42.3346 43.2166 42.5075 42.8362 42.5075 42.4384C42.5075 42.0234 42.3519 41.6429 42.0579 41.3662L35.9187 35.227Z" fill="black" fill-opacity="0.3"/>
</g>
<defs>
<clipPath id="clip0_0_3126">
<rect width="67.5313" height="80" fill="white"/>
</clipPath>
</defs>
</svg>
